<mxfile host="app.diagrams.net" agent="Mozilla/5.0 (Windows NT 10.0; Win64; x64) AppleWebKit/537.36 (KHTML, like Gecko) Chrome/129.0.0.0 Safari/537.36" version="24.7.17">
  <diagram name="Page-1" id="e7e014a7-5840-1c2e-5031-d8a46d1fe8dd">
    <mxGraphModel dx="1290" dy="563" grid="1" gridSize="10" guides="1" tooltips="1" connect="1" arrows="1" fold="1" page="1" pageScale="1" pageWidth="1169" pageHeight="826" background="none" math="0" shadow="0">
      <root>
        <mxCell id="0" />
        <mxCell id="1" parent="0" />
        <mxCell id="2" value="User" style="swimlane;whiteSpace=wrap" parent="1" vertex="1">
          <mxGeometry x="150" y="128" width="574.5" height="1162" as="geometry" />
        </mxCell>
        <mxCell id="5" value="" style="ellipse;shape=startState;fillColor=#000000;strokeColor=#ff0000;" parent="2" vertex="1">
          <mxGeometry x="190" y="40" width="30" height="30" as="geometry" />
        </mxCell>
        <mxCell id="6" value="" style="edgeStyle=elbowEdgeStyle;elbow=horizontal;verticalAlign=bottom;endArrow=open;endSize=8;strokeColor=#FF0000;endFill=1;rounded=0" parent="2" source="5" target="7" edge="1">
          <mxGeometry x="100" y="40" as="geometry">
            <mxPoint x="115" y="110" as="targetPoint" />
          </mxGeometry>
        </mxCell>
        <mxCell id="7" value="Ấn đăng nhập" style="" parent="2" vertex="1">
          <mxGeometry x="265" y="110" width="110" height="50" as="geometry" />
        </mxCell>
        <mxCell id="8" value="Nhập username password" style="" parent="2" vertex="1">
          <mxGeometry x="210" y="220" width="220" height="50" as="geometry" />
        </mxCell>
        <mxCell id="9" value="" style="endArrow=open;strokeColor=#FF0000;endFill=1;rounded=0" parent="2" source="7" target="8" edge="1">
          <mxGeometry relative="1" as="geometry" />
        </mxCell>
        <mxCell id="10" value="Xác nhận" style="" parent="2" vertex="1">
          <mxGeometry x="265" y="325" width="110" height="50" as="geometry" />
        </mxCell>
        <mxCell id="11" value="" style="endArrow=open;strokeColor=#FF0000;endFill=1;rounded=0" parent="2" source="8" target="10" edge="1">
          <mxGeometry relative="1" as="geometry" />
        </mxCell>
        <mxCell id="RwiBWWiKLD-PY1kFBNYk-48" value="Ấn đăng ký" style="" vertex="1" parent="2">
          <mxGeometry x="90" y="512" width="110" height="50" as="geometry" />
        </mxCell>
        <mxCell id="RwiBWWiKLD-PY1kFBNYk-49" value="" style="edgeStyle=elbowEdgeStyle;elbow=horizontal;verticalAlign=bottom;endArrow=open;endSize=8;strokeColor=#FF0000;endFill=1;rounded=0;" edge="1" parent="2" target="RwiBWWiKLD-PY1kFBNYk-48">
          <mxGeometry x="-50" y="-88" as="geometry">
            <mxPoint x="275" y="145" as="targetPoint" />
            <mxPoint x="200" y="62" as="sourcePoint" />
          </mxGeometry>
        </mxCell>
        <mxCell id="RwiBWWiKLD-PY1kFBNYk-51" value="Nhập đầy đủ thông tin" style="" vertex="1" parent="2">
          <mxGeometry x="90" y="632" width="110" height="50" as="geometry" />
        </mxCell>
        <mxCell id="RwiBWWiKLD-PY1kFBNYk-55" value="xác nhận" style="" vertex="1" parent="2">
          <mxGeometry x="90" y="722" width="110" height="50" as="geometry" />
        </mxCell>
        <mxCell id="RwiBWWiKLD-PY1kFBNYk-56" value="" style="endArrow=open;strokeColor=#FF0000;endFill=1;rounded=0" edge="1" parent="2" source="RwiBWWiKLD-PY1kFBNYk-51" target="RwiBWWiKLD-PY1kFBNYk-55">
          <mxGeometry relative="1" as="geometry">
            <mxPoint x="680" y="558" as="sourcePoint" />
            <mxPoint x="210" y="656" as="targetPoint" />
            <Array as="points" />
          </mxGeometry>
        </mxCell>
        <mxCell id="RwiBWWiKLD-PY1kFBNYk-66" value="Ấn vào link kích hoạt" style="" vertex="1" parent="2">
          <mxGeometry x="90" y="812" width="110" height="50" as="geometry" />
        </mxCell>
        <mxCell id="3" value="Hệ thống" style="swimlane;whiteSpace=wrap" parent="1" vertex="1">
          <mxGeometry x="724.5" y="128" width="405.5" height="1162" as="geometry" />
        </mxCell>
        <mxCell id="15" value="Trả về trang đăng nhập" style="" parent="3" vertex="1">
          <mxGeometry x="100" y="110" width="180" height="50" as="geometry" />
        </mxCell>
        <mxCell id="16" value="hệ thống xác thực" style="" parent="3" vertex="1">
          <mxGeometry x="135" y="325" width="110" height="50" as="geometry" />
        </mxCell>
        <mxCell id="21" value="kiểm tra tài khoản mật khẩu" style="rhombus;fillColor=#ffffc0;strokeColor=#ff0000;" parent="3" vertex="1">
          <mxGeometry x="100" y="412" width="180" height="85" as="geometry" />
        </mxCell>
        <mxCell id="23" value="sai" style="edgeStyle=elbowEdgeStyle;elbow=horizontal;align=left;verticalAlign=top;endArrow=open;endSize=8;strokeColor=#FF0000;endFill=1;rounded=0" parent="3" source="21" target="15" edge="1">
          <mxGeometry x="-0.3385" y="-20" relative="1" as="geometry">
            <mxPoint x="265.5" y="136" as="targetPoint" />
            <mxPoint x="281.5" y="434.7222222222222" as="sourcePoint" />
            <Array as="points">
              <mxPoint x="296" y="292" />
            </Array>
            <mxPoint as="offset" />
          </mxGeometry>
        </mxCell>
        <mxCell id="24" value="" style="endArrow=open;strokeColor=#FF0000;endFill=1;rounded=0" parent="3" source="16" target="21" edge="1">
          <mxGeometry relative="1" as="geometry" />
        </mxCell>
        <mxCell id="33" value="trả về trang chủ" style="" parent="3" vertex="1">
          <mxGeometry x="100" y="962" width="180" height="50" as="geometry" />
        </mxCell>
        <mxCell id="38" value="" style="ellipse;shape=endState;fillColor=#000000;strokeColor=#ff0000" parent="3" vertex="1">
          <mxGeometry x="174.99999999999997" y="1072" width="30" height="30" as="geometry" />
        </mxCell>
        <mxCell id="RwiBWWiKLD-PY1kFBNYk-45" value="" style="endArrow=open;strokeColor=#FF0000;endFill=1;rounded=0" edge="1" parent="3" source="21" target="33">
          <mxGeometry relative="1" as="geometry">
            <mxPoint x="161" y="282" as="sourcePoint" />
            <mxPoint x="161" y="345" as="targetPoint" />
            <Array as="points">
              <mxPoint x="375.5" y="455" />
              <mxPoint x="375.5" y="987" />
            </Array>
          </mxGeometry>
        </mxCell>
        <mxCell id="RwiBWWiKLD-PY1kFBNYk-47" value="Đúng" style="edgeLabel;html=1;align=center;verticalAlign=middle;resizable=0;points=[];" vertex="1" connectable="0" parent="RwiBWWiKLD-PY1kFBNYk-45">
          <mxGeometry x="-0.4814" relative="1" as="geometry">
            <mxPoint as="offset" />
          </mxGeometry>
        </mxCell>
        <mxCell id="RwiBWWiKLD-PY1kFBNYk-46" value="" style="endArrow=open;strokeColor=#FF0000;endFill=1;rounded=0" edge="1" parent="3" source="33" target="38">
          <mxGeometry relative="1" as="geometry">
            <mxPoint x="161" y="430" as="sourcePoint" />
            <mxPoint x="161" y="602" as="targetPoint" />
          </mxGeometry>
        </mxCell>
        <mxCell id="RwiBWWiKLD-PY1kFBNYk-50" value="Trả về trang đăng ký" style="" vertex="1" parent="3">
          <mxGeometry x="95.5" y="512" width="184.5" height="50" as="geometry" />
        </mxCell>
        <mxCell id="RwiBWWiKLD-PY1kFBNYk-57" value="Kiểm tra thống tin đăng ký" style="" vertex="1" parent="3">
          <mxGeometry x="95.49" y="602" width="184.51" height="50" as="geometry" />
        </mxCell>
        <mxCell id="RwiBWWiKLD-PY1kFBNYk-59" value="kiểm tra tài khoản mật khẩu" style="rhombus;fillColor=#ffffc0;strokeColor=#ff0000;" vertex="1" parent="3">
          <mxGeometry x="97.74000000000001" y="672" width="180" height="85" as="geometry" />
        </mxCell>
        <mxCell id="RwiBWWiKLD-PY1kFBNYk-62" value="" style="endArrow=open;strokeColor=#FF0000;endFill=1;rounded=0" edge="1" parent="3" source="RwiBWWiKLD-PY1kFBNYk-57" target="RwiBWWiKLD-PY1kFBNYk-59">
          <mxGeometry relative="1" as="geometry">
            <mxPoint x="-364.5" y="746" as="sourcePoint" />
            <mxPoint x="105.5" y="655" as="targetPoint" />
            <Array as="points" />
          </mxGeometry>
        </mxCell>
        <mxCell id="RwiBWWiKLD-PY1kFBNYk-63" value="Gửi mail link kích hoạt" style="" vertex="1" parent="3">
          <mxGeometry x="100" y="812" width="180" height="50" as="geometry" />
        </mxCell>
        <mxCell id="RwiBWWiKLD-PY1kFBNYk-60" value="" style="endArrow=open;strokeColor=#FF0000;endFill=1;rounded=0;" edge="1" parent="3" source="RwiBWWiKLD-PY1kFBNYk-59" target="RwiBWWiKLD-PY1kFBNYk-63">
          <mxGeometry relative="1" as="geometry">
            <mxPoint x="289" y="465" as="sourcePoint" />
            <mxPoint x="-384.5" y="842" as="targetPoint" />
            <Array as="points" />
          </mxGeometry>
        </mxCell>
        <mxCell id="RwiBWWiKLD-PY1kFBNYk-61" value="Đúng" style="edgeLabel;html=1;align=center;verticalAlign=middle;resizable=0;points=[];" vertex="1" connectable="0" parent="RwiBWWiKLD-PY1kFBNYk-60">
          <mxGeometry x="-0.4814" relative="1" as="geometry">
            <mxPoint as="offset" />
          </mxGeometry>
        </mxCell>
        <mxCell id="RwiBWWiKLD-PY1kFBNYk-64" value="sai" style="edgeStyle=elbowEdgeStyle;elbow=horizontal;align=left;verticalAlign=top;endArrow=open;endSize=8;strokeColor=#FF0000;endFill=1;rounded=0" edge="1" parent="3" source="RwiBWWiKLD-PY1kFBNYk-59" target="RwiBWWiKLD-PY1kFBNYk-50">
          <mxGeometry x="-0.3385" y="-20" relative="1" as="geometry">
            <mxPoint x="290" y="145" as="targetPoint" />
            <mxPoint x="290" y="465" as="sourcePoint" />
            <Array as="points">
              <mxPoint x="291.5" y="273" />
            </Array>
            <mxPoint as="offset" />
          </mxGeometry>
        </mxCell>
        <mxCell id="RwiBWWiKLD-PY1kFBNYk-68" value="Kích hoạt tài khoản" style="" vertex="1" parent="3">
          <mxGeometry x="100" y="882" width="180" height="50" as="geometry" />
        </mxCell>
        <mxCell id="RwiBWWiKLD-PY1kFBNYk-70" value="" style="endArrow=open;strokeColor=#FF0000;endFill=1;rounded=0" edge="1" parent="3" source="RwiBWWiKLD-PY1kFBNYk-68" target="15">
          <mxGeometry relative="1" as="geometry">
            <mxPoint x="355.5" y="882" as="sourcePoint" />
            <mxPoint x="395.5" y="152" as="targetPoint" />
            <Array as="points">
              <mxPoint x="395.5" y="907" />
              <mxPoint x="395.5" y="135" />
            </Array>
          </mxGeometry>
        </mxCell>
        <mxCell id="20" value="" style="endArrow=open;strokeColor=#FF0000;endFill=1;rounded=0" parent="1" source="10" target="16" edge="1">
          <mxGeometry relative="1" as="geometry">
            <mxPoint x="744.5" y="478" as="targetPoint" />
          </mxGeometry>
        </mxCell>
        <mxCell id="RwiBWWiKLD-PY1kFBNYk-41" value="" style="edgeStyle=elbowEdgeStyle;elbow=horizontal;verticalAlign=bottom;endArrow=open;endSize=8;strokeColor=#FF0000;endFill=1;rounded=0" edge="1" parent="1" source="7" target="15">
          <mxGeometry x="100" y="40" as="geometry">
            <mxPoint x="570.5" y="248" as="targetPoint" />
            <mxPoint x="569.5" y="208" as="sourcePoint" />
          </mxGeometry>
        </mxCell>
        <mxCell id="17" value="" style="endArrow=open;strokeColor=#FF0000;endFill=1;rounded=0" parent="1" source="15" target="8" edge="1">
          <mxGeometry relative="1" as="geometry" />
        </mxCell>
        <mxCell id="RwiBWWiKLD-PY1kFBNYk-52" value="" style="endArrow=open;strokeColor=#FF0000;endFill=1;rounded=0" edge="1" parent="1" source="RwiBWWiKLD-PY1kFBNYk-48" target="RwiBWWiKLD-PY1kFBNYk-50">
          <mxGeometry relative="1" as="geometry">
            <mxPoint x="974.5" y="593" as="sourcePoint" />
            <mxPoint x="939.5" y="955" as="targetPoint" />
            <Array as="points">
              <mxPoint x="620" y="665" />
            </Array>
          </mxGeometry>
        </mxCell>
        <mxCell id="RwiBWWiKLD-PY1kFBNYk-54" value="" style="endArrow=open;strokeColor=#FF0000;endFill=1;rounded=0" edge="1" parent="1" source="RwiBWWiKLD-PY1kFBNYk-50" target="RwiBWWiKLD-PY1kFBNYk-51">
          <mxGeometry relative="1" as="geometry">
            <mxPoint x="360" y="675" as="sourcePoint" />
            <mxPoint x="830" y="675" as="targetPoint" />
            <Array as="points" />
          </mxGeometry>
        </mxCell>
        <mxCell id="RwiBWWiKLD-PY1kFBNYk-58" value="" style="endArrow=open;strokeColor=#FF0000;endFill=1;rounded=0" edge="1" parent="1" source="RwiBWWiKLD-PY1kFBNYk-55" target="RwiBWWiKLD-PY1kFBNYk-57">
          <mxGeometry relative="1" as="geometry">
            <mxPoint x="830" y="693" as="sourcePoint" />
            <mxPoint x="360" y="784" as="targetPoint" />
            <Array as="points" />
          </mxGeometry>
        </mxCell>
        <mxCell id="RwiBWWiKLD-PY1kFBNYk-67" value="" style="endArrow=open;strokeColor=#FF0000;endFill=1;rounded=0" edge="1" parent="1" source="RwiBWWiKLD-PY1kFBNYk-63" target="RwiBWWiKLD-PY1kFBNYk-66">
          <mxGeometry relative="1" as="geometry">
            <mxPoint x="360" y="874" as="sourcePoint" />
            <mxPoint x="830" y="783" as="targetPoint" />
            <Array as="points" />
          </mxGeometry>
        </mxCell>
        <mxCell id="RwiBWWiKLD-PY1kFBNYk-69" value="" style="endArrow=open;strokeColor=#FF0000;endFill=1;rounded=0" edge="1" parent="1" source="RwiBWWiKLD-PY1kFBNYk-66" target="RwiBWWiKLD-PY1kFBNYk-68">
          <mxGeometry relative="1" as="geometry">
            <mxPoint x="835" y="975" as="sourcePoint" />
            <mxPoint x="360" y="975" as="targetPoint" />
            <Array as="points" />
          </mxGeometry>
        </mxCell>
      </root>
    </mxGraphModel>
  </diagram>
</mxfile>
